<svg xmlns="http://www.w3.org/2000/svg" version="1.1" xmlns:xlink="http://www.w3.org/1999/xlink" xmlns:svgjs="http://svgjs.dev/svgjs" width="100" height="100">
    <path fill="#02c652" d="M92.149 20.234C78.874 1.947 49.167 0.879 25.795 17.846S-5.764 63.39 7.511 81.676C20.784 99.961 50.492 101.03 73.864 84.063S105.422 38.518 92.149 20.234M29.092 88.39C26.193 91.652 18.153 88.864 11.882 81.454 5.61 74.045 3.48 64.82 6.379 61.559S16.713 61.661 22.985 69.07 31.993 85.13 29.092 88.39M30.407 42.974L30.35 42.96C26.419 52.034 11.082 50.464 19.422 37.015 25.138 26.918 42.888 8.394 70.03 15.192 51.516 17.43 34.152 31.833 30.407 42.974"></path>
</svg>