<svg xmlns="http://www.w3.org/2000/svg" version="1.1" xmlns:xlink="http://www.w3.org/1999/xlink" xmlns:svgjs="http://svgjs.dev/svgjs" width="1500" height="340" viewBox="0 0 1500 340"><g transform="matrix(1,0,0,1,-0.9090909090909918,-1.6076385060896996)"><svg viewBox="0 0 396 90" data-background-color="#ffffff" preserveAspectRatio="xMidYMid meet" height="340" width="1500" xmlns="http://www.w3.org/2000/svg" xmlns:xlink="http://www.w3.org/1999/xlink"><g id="tight-bounds" transform="matrix(1,0,0,1,0.2400000000000091,0.4255513692590398)"><svg viewBox="0 0 395.52 89.1488972614819" height="89.1488972614819" width="395.52"><g><svg viewBox="0 0 550.4150857351997 124.06173626966292" height="89.1488972614819" width="395.52"><g transform="matrix(1,0,0,1,154.89508573519976,17.146014202247194)"><svg viewBox="0 0 395.52 89.76970786516853" height="89.76970786516853" width="395.52"><g id="textblocktransform"><svg viewBox="0 0 395.52 89.76970786516853" height="89.76970786516853" width="395.52" id="textblock"><g><svg viewBox="0 0 395.52 89.76970786516853" height="89.76970786516853" width="395.52"><g transform="matrix(1,0,0,1,0,0)"><svg width="395.52" viewBox="2.6 -39.65 177.98000000000002 40.4" height="89.76970786516853" data-palette-color="#000000"><path d="M8.45 0.75Q5.75 0.75 4.17-0.93 2.6-2.6 2.6-5.4L2.6-5.4 2.6-37.05 8.75-37.7 8.75-5.65Q8.75-5 9.05-4.6 9.35-4.2 9.95-4.2L9.95-4.2Q10.3-4.2 10.63-4.3 10.95-4.4 11.05-4.4L11.05-4.4 12.25-0.2Q10.55 0.75 8.45 0.75L8.45 0.75ZM15.3-26.45L21.45-26.45 21.45 0 15.3 0 15.3-26.45ZM18.35-39.65Q20-39.65 21.02-38.6 22.05-37.55 22.05-35.9L22.05-35.9Q22.05-34.3 21.02-33.25 20-32.2 18.35-32.2L18.35-32.2Q16.7-32.2 15.67-33.25 14.65-34.3 14.65-35.9L14.65-35.9Q14.65-37.55 15.67-38.6 16.7-39.65 18.35-39.65L18.35-39.65ZM39.55-26.45L45.59-26.45 38.7 0 31.45 0 24.35-26.45 30.7-26.45 35.05-4.95 39.55-26.45ZM67.34-13.85Q67.34-13.4 67.19-11.3L67.19-11.3 53.54-11.3Q53.74-7.2 54.97-5.58 56.19-3.95 58.44-3.95L58.44-3.95Q59.99-3.95 61.24-4.48 62.49-5 63.94-6.15L63.94-6.15 66.49-2.65Q62.99 0.75 58.09 0.75L58.09 0.75Q52.89 0.75 50.12-2.85 47.34-6.45 47.34-13L47.34-13Q47.34-19.55 49.99-23.35 52.64-27.15 57.49-27.15L57.49-27.15Q62.14-27.15 64.74-23.78 67.34-20.4 67.34-13.85L67.34-13.85ZM61.34-15.3L61.34-15.65Q61.34-19.4 60.44-21.13 59.54-22.85 57.54-22.85L57.54-22.85Q55.69-22.85 54.72-21.18 53.74-19.5 53.54-15.3L53.54-15.3 61.34-15.3ZM79.69-34.55Q85.94-34.55 89.22-31.78 92.49-29 92.49-23.6L92.49-23.6Q92.49-17.85 89.27-15 86.04-12.15 80.14-12.15L80.14-12.15 78.14-12.15 78.14 0 71.79 0 71.79-34.55 79.69-34.55ZM79.79-16.9Q83.04-16.9 84.49-18.4 85.94-19.9 85.94-23.55L85.94-23.55Q85.94-26.85 84.49-28.35 83.04-29.85 79.84-29.85L79.84-29.85 78.14-29.85 78.14-16.9 79.79-16.9ZM114.94-13.85Q114.94-13.4 114.79-11.3L114.79-11.3 101.14-11.3Q101.34-7.2 102.56-5.58 103.79-3.95 106.04-3.95L106.04-3.95Q107.59-3.95 108.84-4.48 110.09-5 111.54-6.15L111.54-6.15 114.09-2.65Q110.59 0.75 105.69 0.75L105.69 0.75Q100.49 0.75 97.71-2.85 94.94-6.45 94.94-13L94.94-13Q94.94-19.55 97.59-23.35 100.24-27.15 105.09-27.15L105.09-27.15Q109.74-27.15 112.34-23.78 114.94-20.4 114.94-13.85L114.94-13.85ZM108.94-15.3L108.94-15.65Q108.94-19.4 108.04-21.13 107.14-22.85 105.14-22.85L105.14-22.85Q103.29-22.85 102.31-21.18 101.34-19.5 101.14-15.3L101.14-15.3 108.94-15.3ZM136.14-6.4Q136.14-5.1 136.49-4.48 136.84-3.85 137.64-3.45L137.64-3.45 136.39 0.65Q134.34 0.4 133.11-0.45 131.89-1.3 131.29-3.05L131.29-3.05Q128.99 0.75 124.84 0.75L124.84 0.75Q121.54 0.75 119.59-1.48 117.64-3.7 117.64-7.4L117.64-7.4Q117.64-11.7 120.31-13.95 122.99-16.2 128.09-16.2L128.09-16.2 130.14-16.2 130.14-18.05Q130.14-20.55 129.26-21.58 128.39-22.6 126.44-22.6L126.44-22.6Q124.09-22.6 120.59-21.3L120.59-21.3 119.19-25.3Q121.19-26.2 123.34-26.68 125.49-27.15 127.44-27.15L127.44-27.15Q136.14-27.15 136.14-18.35L136.14-18.35 136.14-6.4ZM126.49-3.7Q128.89-3.7 130.14-7L130.14-7 130.14-12.55 128.69-12.55Q126.14-12.55 124.96-11.4 123.79-10.25 123.79-7.85L123.79-7.85Q123.79-5.8 124.49-4.75 125.19-3.7 126.49-3.7L126.49-3.7ZM151.43-27.15Q153.58-27.15 155.33-26.43 157.08-25.7 158.68-24.15L158.68-24.15 156.03-20.65Q154.93-21.55 153.96-21.98 152.98-22.4 151.83-22.4L151.83-22.4Q149.58-22.4 148.43-20.28 147.28-18.15 147.28-13.1L147.28-13.1Q147.28-8.2 148.46-6.2 149.63-4.2 151.83-4.2L151.83-4.2Q152.93-4.2 153.83-4.6 154.73-5 155.93-5.85L155.93-5.85 158.68-2.3Q155.48 0.75 151.53 0.75L151.53 0.75Q146.43 0.75 143.61-2.73 140.78-6.2 140.78-13L140.78-13Q140.78-17.4 142.08-20.6 143.38-23.8 145.81-25.48 148.23-27.15 151.43-27.15L151.43-27.15ZM180.58-13.85Q180.58-13.4 180.43-11.3L180.43-11.3 166.78-11.3Q166.98-7.2 168.21-5.58 169.43-3.95 171.68-3.95L171.68-3.95Q173.23-3.95 174.48-4.48 175.73-5 177.18-6.15L177.18-6.15 179.73-2.65Q176.23 0.75 171.33 0.75L171.33 0.75Q166.13 0.75 163.36-2.85 160.58-6.45 160.58-13L160.58-13Q160.58-19.55 163.23-23.35 165.88-27.15 170.73-27.15L170.73-27.15Q175.38-27.15 177.98-23.78 180.58-20.4 180.58-13.85L180.58-13.85ZM174.58-15.3L174.58-15.65Q174.58-19.4 173.68-21.13 172.78-22.85 170.78-22.85L170.78-22.85Q168.93-22.85 167.96-21.18 166.98-19.5 166.78-15.3L166.78-15.3 174.58-15.3Z" opacity="1" transform="matrix(1,0,0,1,0,0)" fill="#000000" class="wordmark-text-0" data-fill-palette-color="primary" id="text-0"></path></svg></g></svg></g></svg></g></svg></g><g><svg viewBox="0 0 133.70261218122224 124.06173626966292" height="124.06173626966292" width="133.70261218122224"><g><svg xmlns="http://www.w3.org/2000/svg" xmlns:xlink="http://www.w3.org/1999/xlink" version="1.1" x="0" y="0" viewBox="1.153162775067186 5.7879998185233585 97.35253822007111 90.33275210412822" enable-background="new 0 0 100 100" xml:space="preserve" height="124.06173626966292" width="133.70261218122224" class="icon-icon-0" data-fill-palette-color="accent" id="icon-0"><path fill="#02c652" d="M92.149 20.234C78.874 1.947 49.167 0.879 25.795 17.846S-5.764 63.39 7.511 81.676C20.784 99.961 50.492 101.03 73.864 84.063S105.422 38.518 92.149 20.234M29.092 88.39C26.193 91.652 18.153 88.864 11.882 81.454 5.61 74.045 3.48 64.82 6.379 61.559S16.713 61.661 22.985 69.07 31.993 85.13 29.092 88.39M30.407 42.974L30.35 42.96C26.419 52.034 11.082 50.464 19.422 37.015 25.138 26.918 42.888 8.394 70.03 15.192 51.516 17.43 34.152 31.833 30.407 42.974" data-fill-palette-color="accent"></path></svg></g></svg></g></svg></g><defs></defs></svg><rect width="395.52" height="89.1488972614819" fill="none" stroke="none" visibility="hidden"></rect></g></svg></g></svg>